<svg width="40" height="40" viewBox="0 0 40 40" fill="none" xmlns="http://www.w3.org/2000/svg">
<path d="M19.9999 3.33331C10.7999 3.33331 3.33325 10.8 3.33325 20C3.33325 29.2 10.7999 36.6666 19.9999 36.6666H28.3333V33.3333H19.9999C12.7666 33.3333 6.66659 27.2333 6.66659 20C6.66659 12.7666 12.7666 6.66665 19.9999 6.66665C27.2333 6.66665 33.3333 12.7666 33.3333 20V22.3833C33.3333 23.7 32.1499 25 30.8333 25C29.5166 25 28.3333 23.7 28.3333 22.3833V20C28.3333 15.4 24.5999 11.6666 19.9999 11.6666C15.3999 11.6666 11.6666 15.4 11.6666 20C11.6666 24.6 15.3999 28.3333 19.9999 28.3333C22.2999 28.3333 24.3999 27.4 25.8999 25.8833C26.9833 27.3666 28.8499 28.3333 30.8333 28.3333C34.1166 28.3333 36.6666 25.6666 36.6666 22.3833V20C36.6666 10.8 29.1999 3.33331 19.9999 3.33331ZM19.9999 25C17.2333 25 14.9999 22.7666 14.9999 20C14.9999 17.2333 17.2333 15 19.9999 15C22.7666 15 24.9999 17.2333 24.9999 20C24.9999 22.7666 22.7666 25 19.9999 25Z" fill="#323232"/>
</svg>
