<svg width="40" height="40" viewBox="0 0 40 40" fill="none" xmlns="http://www.w3.org/2000/svg">
<g id="facebook">
<g id="Group 1340">
<circle id="Ellipse 6" cx="20" cy="20" r="20" fill="#EDFFFC"/>
</g>
<path id="Vector" d="M22.2476 29.7937C24.9726 29.4856 27.4634 28.2674 29.2136 26.3866C30.9638 24.5058 31.8422 22.1035 31.6702 19.668C31.4982 17.2326 30.2887 14.9467 28.2875 13.2749C26.2864 11.6032 23.6438 10.6711 20.8968 10.6681C18.1464 10.6662 15.4988 11.5961 13.4933 13.2681C11.4878 14.9401 10.2755 17.2285 10.1033 19.6669C9.93103 22.1054 10.8119 24.5104 12.5664 26.392C14.3208 28.2736 16.8169 29.4901 19.5459 29.7937V22.6681H16.8443V20.2681H19.5459V18.2833C19.5459 16.6789 19.735 16.0969 20.0863 15.5101C20.4322 14.9295 20.967 14.4549 21.6208 14.1481C22.1368 13.9021 22.7785 13.7545 23.8997 13.6909C24.3441 13.6657 24.9195 13.6969 25.626 13.7869V16.0669H24.9493C23.7106 16.0669 23.1986 16.1185 22.8933 16.2637C22.7111 16.3469 22.5628 16.4786 22.4691 16.6405C22.307 16.9117 22.2476 17.1805 22.2476 18.2821V20.2681H25.6247L24.9493 22.6681H22.2476V29.7937ZM20.8968 32.2681C13.4361 32.2681 7.38843 26.8957 7.38843 20.2681C7.38843 13.6405 13.4361 8.26807 20.8968 8.26807C28.3574 8.26807 34.4051 13.6405 34.4051 20.2681C34.4051 26.8957 28.3574 32.2681 20.8968 32.2681Z" fill="black"/>
</g>
</svg>
