<svg width="166" height="111" viewBox="0 0 166 111" fill="none" xmlns="http://www.w3.org/2000/svg">
<g id="findjobicon">
<g id="Group 4349">
<path id="Vector" d="M80.5556 42.5988H24.6433C23.8553 42.5988 23.2166 43.2296 23.2166 44.0078V67.0348C23.2166 67.8129 23.8553 68.4437 24.6433 68.4437H80.5556C81.3436 68.4437 81.9824 67.8129 81.9824 67.0348V44.0078C81.9824 43.2296 81.3436 42.5988 80.5556 42.5988Z" fill="#407BFF"/>
<path id="Vector_2" d="M60.2239 38.4853H44.9688C43.8121 38.4836 42.7033 38.0292 41.8854 37.2215C41.0675 36.4139 40.6073 35.3189 40.6056 34.1768V30.3085C40.6073 29.1663 41.0675 28.0714 41.8854 27.2638C42.7033 26.4561 43.8121 26.0017 44.9688 26H60.2239C61.3811 26 62.4909 26.4539 63.3092 27.2619C64.1274 28.0699 64.5871 29.1658 64.5871 30.3085V34.1579C64.5896 34.7253 64.4786 35.2876 64.2605 35.8125C64.0423 36.3374 63.7214 36.8146 63.3159 37.2167C62.9105 37.6188 62.4287 37.9378 61.8981 38.1555C61.3675 38.3732 60.7985 38.4853 60.2239 38.4853V38.4853ZM44.9688 29.1638C44.6617 29.167 44.3681 29.2885 44.1504 29.5023C43.9327 29.7161 43.8081 30.0054 43.8031 30.3085V34.1579C43.8031 34.4665 43.9273 34.7625 44.1483 34.9807C44.3693 35.1989 44.669 35.3215 44.9815 35.3215H60.2367C60.5492 35.3215 60.8489 35.1989 61.0699 34.9807C61.2909 34.7625 61.4151 34.4665 61.4151 34.1579V30.3085C61.4151 29.9999 61.2909 29.7039 61.0699 29.4857C60.8489 29.2675 60.5492 29.1449 60.2367 29.1449L44.9688 29.1638Z" fill="#407BFF"/>
<path id="Vector_3" opacity="0.2" d="M80.5492 42.5988H24.6497C24.4618 42.598 24.2756 42.6338 24.1018 42.7043C23.9279 42.7747 23.7699 42.8784 23.6367 43.0093C23.5035 43.1402 23.3979 43.2958 23.3258 43.4671C23.2537 43.6385 23.2166 43.8222 23.2166 44.0078V51.3983L52.3256 57.0591C52.504 57.0974 52.6886 57.0974 52.867 57.0591L81.9824 51.3983V44.0078C81.9824 43.8222 81.9453 43.6385 81.8732 43.4671C81.8011 43.2958 81.6954 43.1402 81.5623 43.0093C81.4291 42.8784 81.2711 42.7747 81.0972 42.7043C80.9234 42.6338 80.7371 42.598 80.5492 42.5988V42.5988Z" fill="black"/>
<path id="Vector_4" d="M82.0207 49.807L52.8543 55.4678C52.6731 55.4993 52.4877 55.4993 52.3065 55.4678L23.1402 49.807C22.8197 49.7445 22.5311 49.5744 22.3232 49.3256C22.1154 49.0768 22.0012 48.7646 22 48.4421V34.5416C22 34.359 22.0364 34.1783 22.1072 34.0096C22.1779 33.841 22.2816 33.6877 22.4123 33.5587C22.543 33.4296 22.6982 33.3272 22.869 33.2573C23.0398 33.1875 23.2228 33.1515 23.4077 33.1515H81.7659C81.9507 33.1515 82.1338 33.1875 82.3046 33.2573C82.4754 33.3272 82.6305 33.4296 82.7613 33.5587C82.892 33.6877 82.9957 33.841 83.0664 34.0096C83.1371 34.1783 83.1736 34.359 83.1736 34.5416V48.4672C83.1672 48.7875 83.0489 49.0958 82.8388 49.34C82.6288 49.5841 82.3397 49.7491 82.0207 49.807Z" fill="#407BFF"/>
<path id="Vector_5" d="M55.6188 51.7002H49.5868C48.841 51.7002 48.2365 52.2972 48.2365 53.0337V56.8013C48.2365 57.5377 48.841 58.1347 49.5868 58.1347H55.6188C56.3646 58.1347 56.9691 57.5377 56.9691 56.8013V53.0337C56.9691 52.2972 56.3646 51.7002 55.6188 51.7002Z" fill="#407BFF"/>
<path id="Vector_6" opacity="0.4" d="M55.6188 51.7002H49.5868C48.841 51.7002 48.2365 52.2972 48.2365 53.0337V56.8013C48.2365 57.5377 48.841 58.1347 49.5868 58.1347H55.6188C56.3646 58.1347 56.9691 57.5377 56.9691 56.8013V53.0337C56.9691 52.2972 56.3646 51.7002 55.6188 51.7002Z" fill="black"/>
</g>
<g id="Character">
<path id="Vector_7" opacity="0.1" d="M24.6329 16.5672L94.3799 71.6031C94.6793 70.9741 94.966 70.3451 95.2335 69.7162C96.9844 65.6103 98.1009 61.268 98.5457 56.8346V56.8346L38.3084 9.30241C33.3637 10.9361 28.7385 13.3932 24.6329 16.5672V16.5672Z" fill="white"/>
<path id="Vector_8" opacity="0.1" d="M8.54346 40.6823L74.1503 92.4161C80.3805 89.2073 85.779 84.6253 89.9277 79.0251L18.2889 22.5299C13.6771 27.7649 10.3431 33.9751 8.54346 40.6823V40.6823Z" fill="white"/>
<path id="Vector_9" d="M165.879 103.109C165.798 101.964 165.421 100.86 164.783 99.901C164.318 99.197 163.668 98.6299 162.904 98.2594L158.554 96.1523C155.655 94.7371 152.745 93.3596 149.834 91.9758C146.923 90.5921 143.993 89.2523 141.075 87.8874C138.158 86.5226 135.215 85.1954 132.266 83.8934C126.381 81.2517 120.459 78.6896 114.502 76.2073C111.521 74.9493 108.527 73.7416 105.52 72.5592C104.64 72.2158 103.924 71.5555 103.518 70.7115C103.111 69.8676 103.044 68.9027 103.329 68.0116C107.356 55.4576 106.433 41.8647 100.745 29.9541C95.0559 18.0435 85.0215 8.69409 72.65 3.7774C60.2785 -1.1393 46.4828 -1.26042 34.0248 3.43828C21.5667 8.13697 11.3655 17.3087 5.4632 29.1176C-0.43907 40.9264 -1.60683 54.5009 2.19367 67.1237C5.99418 79.7464 14.4825 90.486 25.9594 97.1925C37.4363 103.899 51.055 106.077 64.0891 103.292C77.1232 100.506 88.6109 92.9624 96.2527 82.17C96.7948 81.4056 97.6104 80.8728 98.5349 80.679C99.4593 80.4852 100.424 80.6449 101.234 81.1259V81.1259C104.011 82.7612 106.807 84.3672 109.622 85.9439C115.245 89.1098 120.907 92.1939 126.61 95.1962C129.451 96.7184 132.343 98.1839 135.177 99.6746C138.012 101.165 140.91 102.618 143.795 104.077C146.681 105.537 149.528 106.964 152.452 108.373L156.789 110.499C157.55 110.875 158.4 111.041 159.248 110.977C160.407 110.893 161.525 110.518 162.496 109.889C163.651 109.19 164.582 108.182 165.18 106.982C165.779 105.782 166.021 104.439 165.879 103.109V103.109ZM34.4358 89.202C27.0329 85.5929 20.8803 79.8969 16.7559 72.8346C12.6315 65.7722 10.7207 57.6607 11.2651 49.5259C11.8095 41.3911 14.7847 33.5985 19.8144 27.1335C24.8441 20.6685 31.7023 15.8217 39.5218 13.2059C47.3412 10.5901 55.7706 10.3229 63.7438 12.4381C71.717 14.5533 78.8759 18.9559 84.3151 25.0891C89.7543 31.2222 93.2294 38.8104 94.301 46.894C95.3726 54.9776 93.9926 63.1934 90.3353 70.5024C85.4324 80.3008 76.7893 87.7752 66.3066 91.2819C55.8239 94.7886 44.36 94.0404 34.4358 89.202V89.202Z" fill="#407BFF"/>
</g>
<path id="Vector_10" opacity="0.2" d="M57.9684 96.2917C66.9826 95.2943 75.4947 91.6796 82.4285 85.9049C89.3622 80.1302 94.4061 72.4548 96.9223 63.8494C99.4385 55.2439 99.314 46.0949 96.5645 37.5594C93.815 29.0238 88.5641 21.4851 81.4757 15.8964C74.3873 10.3078 65.7798 6.92037 56.7418 6.16245C47.7037 5.40453 38.6411 7.31018 30.6998 11.6384C22.7586 15.9667 16.2955 22.5231 12.1278 30.4786C7.96004 38.4341 6.27496 47.4313 7.28558 56.3325C8.64073 68.2681 14.7417 79.1833 24.2465 86.677C33.7513 94.1708 45.8814 97.6293 57.9684 96.2917V96.2917Z" fill="#407BFF"/>
</g>
</svg>
