<svg width="217" height="55" viewBox="0 0 217 55" fill="none" xmlns="http://www.w3.org/2000/svg">
<g id="frontorback">
<g id="Text">
<rect width="203.73" height="49.254" rx="24.627" transform="matrix(-1 0 0 1 203.73 0)" fill="#E3197B"/>
<path id="Front-End or Back-End?" d="M25.6463 21.1113H21.2713V24.9863H25.3182V26.166H21.2713V31.127H19.9588V19.9238H25.6463V21.1113ZM31.7713 24.4238C31.5474 24.252 31.2245 24.166 30.8026 24.166C30.2557 24.166 29.7974 24.4238 29.4276 24.9395C29.063 25.4551 28.8807 26.1582 28.8807 27.0488V31.127H27.5995V23.127H28.8807V24.7754H28.912C29.0942 24.2129 29.3729 23.7754 29.7479 23.4629C30.1229 23.1452 30.5422 22.9863 31.0057 22.9863C31.339 22.9863 31.5942 23.0228 31.7713 23.0957V24.4238ZM36.5057 31.3145C35.3234 31.3145 34.3781 30.9421 33.6698 30.1973C32.9666 29.4473 32.6151 28.4551 32.6151 27.2207C32.6151 25.877 32.9823 24.8275 33.7166 24.0723C34.451 23.3171 35.4432 22.9395 36.6932 22.9395C37.8859 22.9395 38.8156 23.3066 39.4823 24.041C40.1541 24.7754 40.4901 25.7936 40.4901 27.0957C40.4901 28.3717 40.1281 29.3952 39.4041 30.166C38.6854 30.9316 37.7192 31.3145 36.5057 31.3145ZM36.5995 24.0176C35.7765 24.0176 35.1255 24.2988 34.6463 24.8613C34.1672 25.4186 33.9276 26.1895 33.9276 27.1738C33.9276 28.1217 34.1698 28.8691 34.6541 29.416C35.1385 29.9629 35.787 30.2363 36.5995 30.2363C37.4276 30.2363 38.063 29.9681 38.5057 29.4316C38.9536 28.8952 39.1776 28.1322 39.1776 27.1426C39.1776 26.1426 38.9536 25.3717 38.5057 24.8301C38.063 24.2884 37.4276 24.0176 36.5995 24.0176ZM49.1776 31.127H47.8963V26.5645C47.8963 24.8665 47.2765 24.0176 46.037 24.0176C45.3963 24.0176 44.8651 24.2598 44.4432 24.7441C44.0265 25.2233 43.8182 25.8301 43.8182 26.5645V31.127H42.537V23.127H43.8182V24.4551H43.8495C44.4536 23.4447 45.3286 22.9395 46.4745 22.9395C47.3495 22.9395 48.0187 23.2233 48.4823 23.791C48.9458 24.3535 49.1776 25.1686 49.1776 26.2363V31.127ZM55.3104 31.0488C55.0083 31.2155 54.6099 31.2988 54.1151 31.2988C52.714 31.2988 52.0135 30.5176 52.0135 28.9551V24.2207H50.6385V23.127H52.0135V21.1738L53.2948 20.7598V23.127H55.3104V24.2207H53.2948V28.7285C53.2948 29.265 53.3859 29.6478 53.5682 29.877C53.7505 30.1061 54.0526 30.2207 54.4745 30.2207C54.7974 30.2207 55.076 30.1322 55.3104 29.9551V31.0488ZM61.1151 27.1738H56.8495V26.166H61.1151V27.1738ZM69.537 31.127H63.5995V19.9238H69.287V21.1113H64.912V24.8379H68.9588V26.0176H64.912V29.9395H69.537V31.127ZM78.162 31.127H76.8807V26.5645C76.8807 24.8665 76.2609 24.0176 75.0213 24.0176C74.3807 24.0176 73.8495 24.2598 73.4276 24.7441C73.0109 25.2233 72.8026 25.8301 72.8026 26.5645V31.127H71.5213V23.127H72.8026V24.4551H72.8338C73.438 23.4447 74.313 22.9395 75.4588 22.9395C76.3338 22.9395 77.0031 23.2233 77.4666 23.791C77.9302 24.3535 78.162 25.1686 78.162 26.2363V31.127ZM87.412 31.127H86.1307V29.7676H86.0995C85.5057 30.7988 84.589 31.3145 83.3495 31.3145C82.3442 31.3145 81.5396 30.9577 80.9354 30.2441C80.3364 29.5254 80.037 28.5488 80.037 27.3145C80.037 25.9915 80.3703 24.9316 81.037 24.1348C81.7036 23.3379 82.5916 22.9395 83.701 22.9395C84.8 22.9395 85.5995 23.3717 86.0995 24.2363H86.1307V19.2832H87.412V31.127ZM86.1307 27.5098V26.3301C86.1307 25.6842 85.9172 25.1374 85.4901 24.6895C85.063 24.2415 84.5213 24.0176 83.8651 24.0176C83.0838 24.0176 82.4692 24.304 82.0213 24.877C81.5734 25.4499 81.3495 26.2415 81.3495 27.252C81.3495 28.1738 81.563 28.903 81.9901 29.4395C82.4224 29.9707 83.0005 30.2363 83.7245 30.2363C84.438 30.2363 85.0161 29.9785 85.4588 29.4629C85.9067 28.9473 86.1307 28.2962 86.1307 27.5098ZM97.7401 31.3145C96.5578 31.3145 95.6125 30.9421 94.9041 30.1973C94.201 29.4473 93.8495 28.4551 93.8495 27.2207C93.8495 25.877 94.2166 24.8275 94.951 24.0723C95.6854 23.3171 96.6776 22.9395 97.9276 22.9395C99.1203 22.9395 100.05 23.3066 100.717 24.041C101.389 24.7754 101.724 25.7936 101.724 27.0957C101.724 28.3717 101.362 29.3952 100.639 30.166C99.9198 30.9316 98.9536 31.3145 97.7401 31.3145ZM97.8338 24.0176C97.0109 24.0176 96.3599 24.2988 95.8807 24.8613C95.4015 25.4186 95.162 26.1895 95.162 27.1738C95.162 28.1217 95.4041 28.8691 95.8885 29.416C96.3729 29.9629 97.0213 30.2363 97.8338 30.2363C98.662 30.2363 99.2974 29.9681 99.7401 29.4316C100.188 28.8952 100.412 28.1322 100.412 27.1426C100.412 26.1426 100.188 25.3717 99.7401 24.8301C99.2974 24.2884 98.662 24.0176 97.8338 24.0176ZM107.943 24.4238C107.719 24.252 107.396 24.166 106.974 24.166C106.428 24.166 105.969 24.4238 105.599 24.9395C105.235 25.4551 105.053 26.1582 105.053 27.0488V31.127H103.771V23.127H105.053V24.7754H105.084C105.266 24.2129 105.545 23.7754 105.92 23.4629C106.295 23.1452 106.714 22.9863 107.178 22.9863C107.511 22.9863 107.766 23.0228 107.943 23.0957V24.4238ZM113.896 31.127V19.9238H117.084C118.053 19.9238 118.821 20.1608 119.389 20.6348C119.956 21.1087 120.24 21.7259 120.24 22.4863C120.24 23.1217 120.068 23.6738 119.724 24.1426C119.381 24.6113 118.907 24.9447 118.303 25.1426V25.1738C119.058 25.2624 119.662 25.5488 120.115 26.0332C120.568 26.5124 120.795 27.1374 120.795 27.9082C120.795 28.8665 120.451 29.6426 119.764 30.2363C119.076 30.8301 118.209 31.127 117.162 31.127H113.896ZM115.209 21.1113V24.7285H116.553C117.271 24.7285 117.836 24.5566 118.248 24.2129C118.659 23.8639 118.865 23.3743 118.865 22.7441C118.865 21.6556 118.149 21.1113 116.717 21.1113H115.209ZM115.209 25.9082V29.9395H116.99C117.761 29.9395 118.357 29.7572 118.779 29.3926C119.206 29.028 119.42 28.528 119.42 27.8926C119.42 26.5697 118.519 25.9082 116.717 25.9082H115.209ZM128.623 31.127H127.342V29.877H127.31C126.753 30.8353 125.933 31.3145 124.849 31.3145C124.053 31.3145 123.428 31.1035 122.974 30.6816C122.527 30.2598 122.303 29.6999 122.303 29.002C122.303 27.5072 123.183 26.6374 124.943 26.3926L127.342 26.0566C127.342 24.6973 126.792 24.0176 125.693 24.0176C124.73 24.0176 123.86 24.3457 123.084 25.002V23.6895C123.87 23.1895 124.777 22.9395 125.803 22.9395C127.683 22.9395 128.623 23.9342 128.623 25.9238V31.127ZM127.342 27.0801L125.412 27.3457C124.818 27.429 124.37 27.5775 124.068 27.791C123.766 27.9993 123.615 28.3717 123.615 28.9082C123.615 29.2988 123.753 29.6191 124.029 29.8691C124.31 30.1139 124.683 30.2363 125.146 30.2363C125.782 30.2363 126.305 30.015 126.717 29.5723C127.133 29.1243 127.342 28.5592 127.342 27.877V27.0801ZM136.49 30.7598C135.875 31.1296 135.146 31.3145 134.303 31.3145C133.162 31.3145 132.24 30.9447 131.537 30.2051C130.839 29.4603 130.49 28.4967 130.49 27.3145C130.49 25.9967 130.868 24.9395 131.623 24.1426C132.378 23.3405 133.386 22.9395 134.646 22.9395C135.349 22.9395 135.969 23.0697 136.506 23.3301V24.6426C135.912 24.2259 135.277 24.0176 134.599 24.0176C133.782 24.0176 133.11 24.3118 132.584 24.9004C132.063 25.4837 131.803 26.252 131.803 27.2051C131.803 28.1426 132.047 28.8822 132.537 29.4238C133.032 29.9655 133.693 30.2363 134.521 30.2363C135.219 30.2363 135.875 30.0046 136.49 29.541V30.7598ZM145.068 31.127H143.271L139.74 27.2832H139.709V31.127H138.428V19.2832H139.709V26.791H139.74L143.099 23.127H144.779L141.068 26.9863L145.068 31.127ZM150.474 27.1738H146.209V26.166H150.474V27.1738ZM158.896 31.127H152.959V19.9238H158.646V21.1113H154.271V24.8379H158.318V26.0176H154.271V29.9395H158.896V31.127ZM167.521 31.127H166.24V26.5645C166.24 24.8665 165.62 24.0176 164.381 24.0176C163.74 24.0176 163.209 24.2598 162.787 24.7441C162.37 25.2233 162.162 25.8301 162.162 26.5645V31.127H160.881V23.127H162.162V24.4551H162.193C162.797 23.4447 163.672 22.9395 164.818 22.9395C165.693 22.9395 166.362 23.2233 166.826 23.791C167.29 24.3535 167.521 25.1686 167.521 26.2363V31.127ZM176.771 31.127H175.49V29.7676H175.459C174.865 30.7988 173.948 31.3145 172.709 31.3145C171.704 31.3145 170.899 30.9577 170.295 30.2441C169.696 29.5254 169.396 28.5488 169.396 27.3145C169.396 25.9915 169.73 24.9316 170.396 24.1348C171.063 23.3379 171.951 22.9395 173.06 22.9395C174.159 22.9395 174.959 23.3717 175.459 24.2363H175.49V19.2832H176.771V31.127ZM175.49 27.5098V26.3301C175.49 25.6842 175.277 25.1374 174.849 24.6895C174.422 24.2415 173.881 24.0176 173.224 24.0176C172.443 24.0176 171.829 24.304 171.381 24.877C170.933 25.4499 170.709 26.2415 170.709 27.252C170.709 28.1738 170.922 28.903 171.349 29.4395C171.782 29.9707 172.36 30.2363 173.084 30.2363C173.797 30.2363 174.375 29.9785 174.818 29.4629C175.266 28.9473 175.49 28.2962 175.49 27.5098ZM180.685 28.0176C180.639 27.8822 180.597 27.7077 180.56 27.4941C180.524 27.2754 180.506 27.0592 180.506 26.8457C180.506 26.5124 180.571 26.2129 180.701 25.9473C180.836 25.6764 181.003 25.4238 181.201 25.1895C181.399 24.9551 181.615 24.7311 181.849 24.5176C182.084 24.2988 182.3 24.0801 182.498 23.8613C182.696 23.6374 182.86 23.4056 182.99 23.166C183.125 22.9212 183.193 22.653 183.193 22.3613C183.193 22.1113 183.144 21.89 183.045 21.6973C182.951 21.5046 182.821 21.3431 182.654 21.2129C182.487 21.0827 182.295 20.9863 182.076 20.9238C181.857 20.8561 181.625 20.8223 181.381 20.8223C180.5 20.8223 179.737 21.1686 179.092 21.8613V20.4863C179.889 19.9863 180.714 19.7363 181.568 19.7363C181.964 19.7363 182.336 19.7884 182.685 19.8926C183.034 19.9967 183.339 20.153 183.599 20.3613C183.865 20.5645 184.073 20.8197 184.224 21.127C184.375 21.4342 184.451 21.791 184.451 22.1973C184.451 22.5827 184.383 22.9264 184.248 23.2285C184.112 23.5306 183.941 23.8092 183.732 24.0645C183.529 24.3145 183.308 24.5488 183.068 24.7676C182.829 24.9863 182.605 25.2051 182.396 25.4238C182.193 25.6374 182.024 25.8613 181.889 26.0957C181.753 26.3301 181.685 26.5879 181.685 26.8691C181.685 27.1087 181.714 27.3275 181.771 27.5254C181.829 27.7181 181.886 27.8822 181.943 28.0176H180.685ZM181.389 31.2676C181.159 31.2676 180.956 31.1842 180.779 31.0176C180.607 30.8509 180.521 30.6478 180.521 30.4082C180.521 30.1634 180.607 29.9603 180.779 29.7988C180.951 29.627 181.154 29.541 181.389 29.541C181.623 29.541 181.826 29.627 181.998 29.7988C182.17 29.9603 182.256 30.1634 182.256 30.4082C182.256 30.6478 182.17 30.8509 181.998 31.0176C181.821 31.1842 181.618 31.2676 181.389 31.2676Z" fill="white"/>
</g>
<path id="Tail" d="M202.737 37.92C202.737 32.4129 204.745 22.5001 204.745 22.5001L184.665 46.1807C195.635 52.5794 203.316 54.6255 216.507 54.9921C210.771 50.5237 202.737 43.4272 202.737 37.92Z" fill="#E3197B"/>
</g>
</svg>
