<svg width="40" height="40" viewBox="0 0 40 40" fill="none" xmlns="http://www.w3.org/2000/svg">
<g id="instagram">
<g id="Group 1342">
<circle id="Ellipse 5" cx="20" cy="20" r="20" fill="#EDFFFC"/>
</g>
<path id="Vector" d="M21.0353 16.6842C19.9605 16.6842 18.9297 17.0635 18.1697 17.7386C17.4097 18.4137 16.9828 19.3294 16.9828 20.2842C16.9828 21.239 17.4097 22.1546 18.1697 22.8298C18.9297 23.5049 19.9605 23.8842 21.0353 23.8842C22.1101 23.8842 23.1408 23.5049 23.9008 22.8298C24.6608 22.1546 25.0878 21.239 25.0878 20.2842C25.0878 19.3294 24.6608 18.4137 23.9008 17.7386C23.1408 17.0635 22.1101 16.6842 21.0353 16.6842ZM21.0353 14.2842C22.8266 14.2842 24.5445 14.9163 25.8112 16.0415C27.0778 17.1668 27.7894 18.6929 27.7894 20.2842C27.7894 21.8755 27.0778 23.4016 25.8112 24.5268C24.5445 25.652 22.8266 26.2842 21.0353 26.2842C19.2439 26.2842 17.526 25.652 16.2593 24.5268C14.9927 23.4016 14.2811 21.8755 14.2811 20.2842C14.2811 18.6929 14.9927 17.1668 16.2593 16.0415C17.526 14.9163 19.2439 14.2842 21.0353 14.2842ZM29.8157 13.9842C29.8157 14.382 29.6378 14.7635 29.3211 15.0448C29.0045 15.3261 28.575 15.4842 28.1271 15.4842C27.6793 15.4842 27.2498 15.3261 26.9332 15.0448C26.6165 14.7635 26.4386 14.382 26.4386 13.9842C26.4386 13.5864 26.6165 13.2048 26.9332 12.9235C27.2498 12.6422 27.6793 12.4842 28.1271 12.4842C28.575 12.4842 29.0045 12.6422 29.3211 12.9235C29.6378 13.2048 29.8157 13.5864 29.8157 13.9842ZM21.0353 10.6842C17.6933 10.6842 17.1476 10.6926 15.5928 10.7538C14.5337 10.7982 13.8232 10.9242 13.1639 11.1522C12.5777 11.3538 12.1549 11.595 11.705 11.9958C11.2822 12.3587 10.9572 12.8017 10.7541 13.2918C10.4974 13.8798 10.3556 14.5098 10.3069 15.4494C10.2367 16.7742 10.2286 17.2374 10.2286 20.2842C10.2286 23.253 10.238 23.7378 10.3069 25.119C10.3569 26.0586 10.4988 26.691 10.7541 27.2754C10.9837 27.7974 11.2539 28.173 11.7023 28.5714C12.1576 28.9746 12.5804 29.2158 13.1612 29.415C13.8286 29.6442 14.5391 29.7714 15.5928 29.8146C17.0841 29.877 17.6055 29.8842 21.0353 29.8842C24.3772 29.8842 24.923 29.8758 26.4778 29.8146C27.5341 29.7702 28.246 29.6442 28.9052 29.4174C29.4901 29.2146 29.9156 28.9734 30.3641 28.575C30.8194 28.1706 31.0909 27.795 31.3151 27.279C31.5718 26.6874 31.715 26.055 31.7636 25.119C31.8338 23.7942 31.8419 23.331 31.8419 20.2842C31.8419 17.3154 31.8325 16.8306 31.7636 15.4494C31.7136 14.511 31.5718 13.8774 31.3151 13.2918C31.1115 12.8022 30.787 12.3593 30.3655 11.9958C29.9572 11.62 29.4584 11.3312 28.9066 11.151C28.2447 10.923 27.5341 10.797 26.4778 10.7538C24.9865 10.6914 24.465 10.6842 21.0353 10.6842ZM21.0353 8.28418C24.7055 8.28418 25.1634 8.29618 26.6034 8.35618C28.042 8.41618 29.0214 8.61658 29.8832 8.91418C30.7748 9.21898 31.5258 9.63178 32.2769 10.2978C32.9638 10.8977 33.4953 11.6233 33.8344 12.4242C34.1681 13.1886 34.395 14.0598 34.4626 15.3378C34.526 16.617 34.5436 17.0238 34.5436 20.2842C34.5436 23.5446 34.5301 23.9514 34.4626 25.2306C34.395 26.5086 34.1681 27.3786 33.8344 28.1442C33.4963 28.9455 32.9646 29.6713 32.2769 30.2706C31.6014 30.8806 30.7847 31.3527 29.8832 31.6542C29.0227 31.9506 28.042 32.1522 26.6034 32.2122C25.1634 32.2686 24.7055 32.2842 21.0353 32.2842C17.365 32.2842 16.9071 32.2722 15.4671 32.2122C14.0285 32.1522 13.0491 31.9506 12.1873 31.6542C11.2854 31.3535 10.4684 30.8813 9.79362 30.2706C9.10659 29.6708 8.57507 28.9451 8.2361 28.1442C7.9011 27.3798 7.67551 26.5086 7.60797 25.2306C7.54448 23.9514 7.52692 23.5446 7.52692 20.2842C7.52692 17.0238 7.54042 16.617 7.60797 15.3378C7.67551 14.0586 7.9011 13.1898 8.2361 12.4242C8.57413 11.6228 9.10578 10.897 9.79362 10.2978C10.4686 9.68726 11.2855 9.21505 12.1873 8.91418C13.0491 8.61658 14.0271 8.41618 15.4671 8.35618C16.9071 8.29978 17.365 8.28418 21.0353 8.28418Z" fill="black"/>
</g>
</svg>
