<svg width="167" height="118" viewBox="0 0 167 118" fill="none" xmlns="http://www.w3.org/2000/svg">
<g id="partnershipicon" clip-path="url(#clip0)">
<path id="Vector" d="M167.005 59.0351C167.005 59.0351 155.599 31.2902 127.608 11.565C108.007 -2.24896 88.7171 -1.29627 77.8024 2.26457C60.5881 7.87916 46.2094 20.3656 46.2094 20.3656C46.2094 20.3656 47.8463 30.2906 57.4251 27.2842C68.2236 23.8952 89.0022 10.3233 108.408 21.7634C119.523 28.315 123.447 53.6002 100.646 48.9461C91.9646 47.5483 85.7125 54.67 87.4445 62.4164C88.226 65.8601 90.3171 62.229 98.8239 64.759C100.936 65.3916 113.335 70.5064 115.885 71.6309C122.871 74.7154 126.546 76.8394 135.491 74.5826C150.62 70.7797 159.217 56.6847 167.005 59.0351Z" fill="#FA478B"/>
<path id="Vector_2" d="M111.08 27.2842C110.042 26.0824 108.9 25.0923 107.684 24.3403C102.656 21.3143 97.2715 19.796 91.8431 19.8736C82.1587 19.8111 72.9179 23.778 65.4936 26.9641C62.5523 28.2291 60.0177 29.3067 57.7947 30.0095C56.534 30.4231 55.247 30.6352 53.9557 30.642H53.903C54.8693 33.1799 57.5517 37.7794 64.1365 36.5456C73.5568 34.7808 82.7554 28.2369 95.8193 26.394C100.912 25.7963 106.035 26.0952 111.08 27.2842V27.2842Z" fill="#FA478B"/>
<path id="Vector_3" d="M106.766 35.4445C103.287 35.4077 99.8121 35.7811 96.3737 36.5612C92.7371 37.6887 89.1531 39.1598 85.6438 40.9654C81.7891 42.8161 78.1508 44.5653 74.4915 45.2525C75.6479 47.517 78.1297 50.3439 83.125 49.4068C90.9507 47.9465 98.9664 36.4518 114.428 39.3646C114.662 38.8343 114.827 38.2436 114.913 37.6232C114.953 37.2827 114.974 36.938 114.977 36.5924C112.274 35.7876 109.522 35.4029 106.766 35.4445V35.4445Z" fill="#FA478B"/>
<path id="Vector_4" d="M101.031 28.8851C99.3512 28.8665 97.6716 28.9733 95.9989 29.2052C88.7963 30.2048 82.8875 32.6411 77.174 34.9994C73.2752 36.7359 69.3072 38.1129 65.293 39.1225C66.819 41.3012 69.5173 43.3783 74.2064 42.4959C80.902 41.2387 87.8723 36.1083 96.0306 33.8203C98.6022 33.1019 107.79 31.7275 114.549 33.6016C114.247 32.554 113.852 31.5695 113.377 30.6733C109.304 29.5556 105.173 28.9573 101.031 28.8851V28.8851Z" fill="#FA478B"/>
<path id="Vector_5" d="M0 58.9649C0 58.9649 11.4058 86.7098 39.3976 106.435C58.9986 120.249 78.2882 119.296 89.2029 115.735C106.417 110.121 120.796 97.6422 120.796 97.6422C120.796 97.6422 119.159 87.7093 109.58 90.7236C98.7817 94.1126 78.0083 107.677 58.5973 96.2444C47.5083 89.6928 43.5586 64.3998 66.3596 69.0617C75.0407 70.4517 81.2928 63.33 79.5608 55.5914C78.7793 52.1399 76.6882 55.771 68.1814 53.2488C66.0692 52.6162 53.6706 47.5092 51.1202 46.3848C44.1341 43.2612 40.4589 41.1684 31.5138 43.4252C16.3853 47.2203 7.78869 61.3231 0 58.9649Z" fill="#FA478B"/>
<path id="Vector_6" d="M55.9254 90.7236C56.9644 91.9201 58.1061 92.9074 59.3208 93.6597C64.349 96.6857 69.7337 98.204 75.1621 98.1264C84.8465 98.1967 94.0873 94.222 101.512 91.0359C104.453 89.7787 106.988 88.6932 109.205 87.9905C110.468 87.5792 111.757 87.3698 113.049 87.3657H113.102C112.136 84.8279 109.453 80.2206 102.869 81.4622C93.4484 83.2192 84.2498 89.7709 71.186 91.6138C66.0932 92.2076 60.9708 91.9087 55.9254 90.7236V90.7236Z" fill="#FA478B"/>
<path id="Vector_7" d="M60.2343 82.5555C63.7125 82.6045 67.1877 82.2389 70.6262 81.4623C74.2652 80.3387 77.8511 78.8676 81.3614 77.058C85.2162 75.2151 88.8544 73.466 92.5138 72.771C91.3574 70.5064 88.8755 67.6796 83.8802 68.6166C76.0546 70.0847 68.0388 81.5716 52.5776 78.6589C52.3433 79.1892 52.1785 79.7799 52.0918 80.4003C52.0493 80.7429 52.0281 81.0905 52.0284 81.4388C54.7304 82.2283 57.4803 82.6025 60.2343 82.5555V82.5555Z" fill="#FA478B"/>
<path id="Vector_8" d="M65.9742 89.1149C67.7114 89.1149 69.4065 89.0212 71.0065 88.8026C78.209 87.803 84.1178 85.3667 89.8313 83.0084C93.7294 81.2657 97.6975 79.886 101.712 78.8775C100.186 76.6988 97.488 74.6295 92.7989 75.5041C86.1033 76.7613 79.1384 81.8995 70.9748 84.1797C68.4032 84.8982 59.2152 86.2803 52.4562 84.3984C52.7587 85.4444 53.1509 86.4286 53.6232 87.3267C57.698 88.4439 61.8302 89.0422 65.9742 89.1149V89.1149Z" fill="#FA478B"/>
</g>
<defs>
<clipPath id="clip0">
<rect width="167" height="118" fill="white"/>
</clipPath>
</defs>
</svg>
