<svg width="40" height="40" viewBox="0 0 40 40" fill="none" xmlns="http://www.w3.org/2000/svg">
<g id="twitter">
<g id="Group 1341">
<g id="Group 1343">
<circle id="Ellipse 4" cx="20" cy="20" r="20" fill="#EDFFFC"/>
</g>
</g>
<path id="Vector" d="M26.3935 12.6199C25.3698 12.6197 24.387 12.9678 23.6565 13.5892C22.9261 14.2107 22.5063 15.0557 22.4876 15.9426L22.4499 17.7808C22.4477 17.8795 22.4214 17.9767 22.3728 18.066C22.3242 18.1552 22.2544 18.2346 22.1679 18.2989C22.0814 18.3631 21.9802 18.4108 21.871 18.4388C21.7618 18.4668 21.6469 18.4744 21.534 18.4612L19.4316 18.2138C16.6651 17.887 14.0145 16.7829 11.4716 14.9471C10.6662 18.8102 12.2393 21.4864 16.0281 23.551L18.381 24.8324C18.4928 24.8933 18.5857 24.977 18.6515 25.0762C18.7174 25.1754 18.7542 25.287 18.7587 25.4014C18.7632 25.5157 18.7353 25.6293 18.6775 25.7321C18.6196 25.835 18.5335 25.924 18.4268 25.9914L16.2826 27.3487C17.5581 27.4176 18.7689 27.3685 19.7737 27.1958C26.1282 26.0964 30.3533 21.9532 30.3533 15.1186C30.3533 14.5608 28.9902 12.6199 26.3935 12.6199ZM19.7939 15.8994C19.8174 14.7744 20.2234 13.6804 20.961 12.7544C21.6986 11.8283 22.7352 11.1114 23.9407 10.6934C25.1463 10.2754 26.4674 10.1749 27.7387 10.4044C29.0099 10.634 30.1747 11.1834 31.0873 11.9838C32.0449 11.978 32.8598 12.1881 34.6821 11.231C34.2309 13.1451 34.0086 13.9761 33.047 15.1186C33.047 24.0376 26.7208 28.3746 20.3016 29.4845C15.9001 30.2454 9.49983 28.9955 7.66541 27.3359C8.60013 27.2728 12.3983 26.9192 14.5937 25.5269C12.7363 24.466 5.34342 20.6962 10.2015 10.5611C12.4818 12.8685 14.7943 14.4394 17.1379 15.2727C18.6975 15.8271 19.08 15.8154 19.7952 15.9006L19.7939 15.8994Z" fill="black"/>
</g>
</svg>
