<svg width="186" height="50" viewBox="0 0 186 50" fill="none" xmlns="http://www.w3.org/2000/svg">
<g id="whichcompany">
<path id="Tail" d="M17.0307 35.2881C17.0307 30.5424 14.5735 22 14.5735 22L39.1457 42.4068C25.722 47.9209 16.3225 49.684 0.181229 50C7.19996 46.1494 17.0307 40.0339 17.0307 35.2881Z" fill="#2677F1"/>
<g id="Text">
<rect x="15.0845" width="170.33" height="45" rx="22.5" fill="#2677F1"/>
<path id="Which Company?" d="M51.2273 17.7969L48.0633 29H46.5242L44.2195 20.8125C44.1206 20.4635 44.0607 20.0833 44.0398 19.6719H44.0086C43.9773 20.0573 43.9096 20.4323 43.8055 20.7969L41.4852 29H39.9617L36.6805 17.7969H38.1258L40.5086 26.3906C40.6075 26.75 40.67 27.125 40.6961 27.5156H40.7352C40.7612 27.2396 40.8419 26.8646 40.9773 26.3906L43.4539 17.7969H44.7117L47.0867 26.4531C47.17 26.75 47.2325 27.099 47.2742 27.5H47.3055C47.3263 27.2292 47.3966 26.8698 47.5164 26.4219L49.8055 17.7969H51.2273ZM59.368 29H58.0867V24.3906C58.0867 22.724 57.4669 21.8906 56.2273 21.8906C55.6023 21.8906 55.0763 22.1328 54.6492 22.6172C54.2221 23.0964 54.0086 23.7135 54.0086 24.4688V29H52.7273V17.1562H54.0086V22.3281H54.0398C54.6544 21.3177 55.5294 20.8125 56.6648 20.8125C58.4669 20.8125 59.368 21.8984 59.368 24.0703V29ZM62.4461 18.9688C62.2169 18.9688 62.0216 18.8906 61.8602 18.7344C61.6987 18.5781 61.618 18.3802 61.618 18.1406C61.618 17.901 61.6987 17.7031 61.8602 17.5469C62.0216 17.3854 62.2169 17.3047 62.4461 17.3047C62.6805 17.3047 62.8784 17.3854 63.0398 17.5469C63.2065 17.7031 63.2898 17.901 63.2898 18.1406C63.2898 18.3698 63.2065 18.5651 63.0398 18.7266C62.8784 18.888 62.6805 18.9688 62.4461 18.9688ZM63.0711 29H61.7898V21H63.0711V29ZM71.118 28.6328C70.5034 29.0026 69.7742 29.1875 68.9305 29.1875C67.7898 29.1875 66.868 28.8177 66.1648 28.0781C65.4669 27.3333 65.118 26.3698 65.118 25.1875C65.118 23.8698 65.4956 22.8125 66.2508 22.0156C67.006 21.2135 68.0138 20.8125 69.2742 20.8125C69.9773 20.8125 70.5971 20.9427 71.1336 21.2031V22.5156C70.5398 22.099 69.9044 21.8906 69.2273 21.8906C68.4096 21.8906 67.7378 22.1849 67.2117 22.7734C66.6909 23.3568 66.4305 24.125 66.4305 25.0781C66.4305 26.0156 66.6753 26.7552 67.1648 27.2969C67.6596 27.8385 68.3211 28.1094 69.1492 28.1094C69.8471 28.1094 70.5034 27.8776 71.118 27.4141V28.6328ZM79.6961 29H78.4148V24.3906C78.4148 22.724 77.795 21.8906 76.5555 21.8906C75.9305 21.8906 75.4044 22.1328 74.9773 22.6172C74.5503 23.0964 74.3367 23.7135 74.3367 24.4688V29H73.0555V17.1562H74.3367V22.3281H74.368C74.9825 21.3177 75.8575 20.8125 76.993 20.8125C78.795 20.8125 79.6961 21.8984 79.6961 24.0703V29ZM94.3055 28.5312C93.4773 28.9688 92.4461 29.1875 91.2117 29.1875C89.618 29.1875 88.3419 28.6745 87.3836 27.6484C86.4253 26.6224 85.9461 25.276 85.9461 23.6094C85.9461 21.8177 86.4852 20.3698 87.5633 19.2656C88.6414 18.1615 90.0086 17.6094 91.6648 17.6094C92.7273 17.6094 93.6075 17.763 94.3055 18.0703V19.4688C93.5034 19.0208 92.618 18.7969 91.6492 18.7969C90.3628 18.7969 89.3185 19.2266 88.5164 20.0859C87.7195 20.9453 87.3211 22.0938 87.3211 23.5312C87.3211 24.8958 87.6935 25.9844 88.4383 26.7969C89.1883 27.6042 90.17 28.0078 91.3836 28.0078C92.5086 28.0078 93.4825 27.7578 94.3055 27.2578V28.5312ZM99.7586 29.1875C98.5763 29.1875 97.631 28.8151 96.9227 28.0703C96.2195 27.3203 95.868 26.3281 95.868 25.0938C95.868 23.75 96.2352 22.7005 96.9695 21.9453C97.7039 21.1901 98.6961 20.8125 99.9461 20.8125C101.139 20.8125 102.068 21.1797 102.735 21.9141C103.407 22.6484 103.743 23.6667 103.743 24.9688C103.743 26.2448 103.381 27.2682 102.657 28.0391C101.938 28.8047 100.972 29.1875 99.7586 29.1875ZM99.8523 21.8906C99.0294 21.8906 98.3784 22.1719 97.8992 22.7344C97.42 23.2917 97.1805 24.0625 97.1805 25.0469C97.1805 25.9948 97.4227 26.7422 97.907 27.2891C98.3914 27.8359 99.0398 28.1094 99.8523 28.1094C100.68 28.1094 101.316 27.8411 101.759 27.3047C102.207 26.7682 102.43 26.0052 102.43 25.0156C102.43 24.0156 102.207 23.2448 101.759 22.7031C101.316 22.1615 100.68 21.8906 99.8523 21.8906ZM117.149 29H115.868V24.4062C115.868 23.5208 115.73 22.8802 115.454 22.4844C115.183 22.0885 114.725 21.8906 114.079 21.8906C113.532 21.8906 113.066 22.1406 112.68 22.6406C112.3 23.1406 112.11 23.7396 112.11 24.4375V29H110.829V24.25C110.829 22.6771 110.222 21.8906 109.009 21.8906C108.446 21.8906 107.983 22.1276 107.618 22.6016C107.253 23.0703 107.071 23.6823 107.071 24.4375V29H105.79V21H107.071V22.2656H107.102C107.67 21.2969 108.498 20.8125 109.587 20.8125C110.134 20.8125 110.61 20.9661 111.016 21.2734C111.423 21.5755 111.701 21.974 111.852 22.4688C112.446 21.3646 113.332 20.8125 114.509 20.8125C116.269 20.8125 117.149 21.8984 117.149 24.0703V29ZM120.884 27.8438H120.852V32.6797H119.571V21H120.852V22.4062H120.884C121.514 21.3438 122.436 20.8125 123.649 20.8125C124.68 20.8125 125.485 21.1719 126.063 21.8906C126.641 22.6042 126.93 23.5625 126.93 24.7656C126.93 26.1042 126.605 27.1771 125.954 27.9844C125.303 28.7865 124.412 29.1875 123.282 29.1875C122.246 29.1875 121.446 28.7396 120.884 27.8438ZM120.852 24.6172V25.7344C120.852 26.3958 121.066 26.9583 121.493 27.4219C121.925 27.8802 122.472 28.1094 123.134 28.1094C123.91 28.1094 124.516 27.8125 124.954 27.2188C125.397 26.625 125.618 25.7995 125.618 24.7422C125.618 23.8516 125.412 23.1536 125.001 22.6484C124.589 22.1432 124.032 21.8906 123.329 21.8906C122.584 21.8906 121.985 22.151 121.532 22.6719C121.079 23.1875 120.852 23.8359 120.852 24.6172ZM134.704 29H133.423V27.75H133.391C132.834 28.7083 132.014 29.1875 130.93 29.1875C130.134 29.1875 129.509 28.9766 129.055 28.5547C128.608 28.1328 128.384 27.5729 128.384 26.875C128.384 25.3802 129.264 24.5104 131.024 24.2656L133.423 23.9297C133.423 22.5703 132.873 21.8906 131.774 21.8906C130.811 21.8906 129.941 22.2188 129.165 22.875V21.5625C129.951 21.0625 130.858 20.8125 131.884 20.8125C133.764 20.8125 134.704 21.8073 134.704 23.7969V29ZM133.423 24.9531L131.493 25.2188C130.899 25.3021 130.451 25.4505 130.149 25.6641C129.847 25.8724 129.696 26.2448 129.696 26.7812C129.696 27.1719 129.834 27.4922 130.11 27.7422C130.391 27.987 130.764 28.1094 131.227 28.1094C131.863 28.1094 132.386 27.888 132.798 27.4453C133.214 26.9974 133.423 26.4323 133.423 25.75V24.9531ZM143.759 29H142.477V24.4375C142.477 22.7396 141.858 21.8906 140.618 21.8906C139.977 21.8906 139.446 22.1328 139.024 22.6172C138.608 23.0964 138.399 23.7031 138.399 24.4375V29H137.118V21H138.399V22.3281H138.43C139.035 21.3177 139.91 20.8125 141.055 20.8125C141.93 20.8125 142.6 21.0964 143.063 21.6641C143.527 22.2266 143.759 23.0417 143.759 24.1094V29ZM152.548 21L148.868 30.2812C148.212 31.9375 147.29 32.7656 146.102 32.7656C145.769 32.7656 145.49 32.7318 145.266 32.6641V31.5156C145.542 31.6094 145.795 31.6562 146.024 31.6562C146.67 31.6562 147.154 31.2708 147.477 30.5L148.118 28.9844L144.993 21H146.415L148.579 27.1562C148.605 27.2344 148.66 27.4375 148.743 27.7656H148.79C148.816 27.6406 148.868 27.4427 148.946 27.1719L151.22 21H152.548ZM155.251 25.8906C155.204 25.7552 155.162 25.5807 155.126 25.3672C155.089 25.1484 155.071 24.9323 155.071 24.7188C155.071 24.3854 155.136 24.0859 155.266 23.8203C155.402 23.5495 155.568 23.2969 155.766 23.0625C155.964 22.8281 156.18 22.6042 156.415 22.3906C156.649 22.1719 156.865 21.9531 157.063 21.7344C157.261 21.5104 157.425 21.2786 157.555 21.0391C157.691 20.7943 157.759 20.526 157.759 20.2344C157.759 19.9844 157.709 19.763 157.61 19.5703C157.516 19.3776 157.386 19.2161 157.22 19.0859C157.053 18.9557 156.86 18.8594 156.641 18.7969C156.423 18.7292 156.191 18.6953 155.946 18.6953C155.066 18.6953 154.303 19.0417 153.657 19.7344V18.3594C154.454 17.8594 155.279 17.6094 156.134 17.6094C156.529 17.6094 156.902 17.6615 157.251 17.7656C157.6 17.8698 157.904 18.026 158.165 18.2344C158.43 18.4375 158.639 18.6927 158.79 19C158.941 19.3073 159.016 19.6641 159.016 20.0703C159.016 20.4557 158.949 20.7995 158.813 21.1016C158.678 21.4036 158.506 21.6823 158.298 21.9375C158.095 22.1875 157.873 22.4219 157.634 22.6406C157.394 22.8594 157.17 23.0781 156.962 23.2969C156.759 23.5104 156.589 23.7344 156.454 23.9688C156.318 24.2031 156.251 24.4609 156.251 24.7422C156.251 24.9818 156.279 25.2005 156.337 25.3984C156.394 25.5911 156.451 25.7552 156.509 25.8906H155.251ZM155.954 29.1406C155.725 29.1406 155.522 29.0573 155.345 28.8906C155.173 28.724 155.087 28.5208 155.087 28.2812C155.087 28.0365 155.173 27.8333 155.345 27.6719C155.516 27.5 155.72 27.4141 155.954 27.4141C156.188 27.4141 156.391 27.5 156.563 27.6719C156.735 27.8333 156.821 28.0365 156.821 28.2812C156.821 28.5208 156.735 28.724 156.563 28.8906C156.386 29.0573 156.183 29.1406 155.954 29.1406Z" fill="white"/>
</g>
</g>
</svg>
